<?xml version="1.0" standalone="no"?><!DOCTYPE svg PUBLIC "-//W3C//DTD SVG 1.1//EN" "http://www.w3.org/Graphics/SVG/1.1/DTD/svg11.dtd"><svg t="1552411370368" class="icon" style="" viewBox="0 0 1024 1024" version="1.1" xmlns="http://www.w3.org/2000/svg" p-id="6477" xmlns:xlink="http://www.w3.org/1999/xlink" width="200" height="200"><defs><style type="text/css"></style></defs><path d="M925.152 337.856c-23.52-54.144-55.52-101.696-96.064-142.368s-87.872-72.672-142.016-96.096c-54.144-23.392-112.256-35.072-174.24-35.072s-120.224 11.68-174.72 35.072c-54.496 23.424-101.92 55.392-142.496 96.096s-72.544 88.224-96.064 142.368c-23.52 54.272-35.232 112.288-35.232 173.984s11.712 119.872 35.232 174.368c23.52 54.656 55.52 102.304 96.064 143.008s88 72.672 142.496 96.096c54.496 23.392 112.768 35.104 174.72 35.104s120.096-11.712 174.24-35.104c54.144-23.424 101.44-55.392 142.016-96.096s72.544-88.352 96.064-143.008c23.52-54.496 35.232-112.608 35.232-174.368s-11.712-119.712-35.232-173.984zM743.904 655.904c24.288 24.32 24.288 63.712 0 88-12.16 12.16-28.096 18.24-44 18.24s-31.84-6.08-44-18.24l-143.584-143.552-143.584 143.552c-12.128 12.16-28.064 18.24-44 18.24s-31.84-6.08-44-18.24c-24.288-24.288-24.288-63.68 0-88l143.584-143.552-143.584-143.584c-24.288-24.288-24.288-63.68 0-88s63.712-24.32 88 0l143.584 143.552 143.584-143.552c24.32-24.32 63.712-24.32 88 0s24.288 63.712 0 88l-143.584 143.584 143.584 143.552z" p-id="6478"></path></svg>