<?xml version="1.0" standalone="no"?><!DOCTYPE svg PUBLIC "-//W3C//DTD SVG 1.1//EN" "http://www.w3.org/Graphics/SVG/1.1/DTD/svg11.dtd"><svg t="1552411365053" class="icon" style="" viewBox="0 0 1024 1024" version="1.1" xmlns="http://www.w3.org/2000/svg" p-id="6362" xmlns:xlink="http://www.w3.org/1999/xlink" width="200" height="200"><defs><style type="text/css"></style></defs><path d="M851.2 441.6l-320-268.8C524.8 172.8 518.4 172.8 512 172.8s-12.8 0-19.2 6.4l-320 268.8C166.4 448 160 460.8 160 467.2L160 832c0 19.2 12.8 32 32 32l640 0c19.2 0 32-12.8 32-32L864 467.2C864 460.8 857.6 448 851.2 441.6zM806.4 806.4 601.6 806.4l0-147.2c0-51.2-38.4-89.6-89.6-89.6s-89.6 38.4-89.6 89.6l0 147.2L217.6 806.4 217.6 480 512 236.8l294.4 243.2L806.4 806.4z" p-id="6363"></path></svg>